/* XPM */
static char *q2pro[] = {
/* columns rows colors chars-per-pixel */
"32 32 2 1",
"  c DarkGreen",
". c None",
/* pixels */
"................................",
".........  ..........  .........",
"........  ............  ........",
".......  ..............  .......",
"......  ................  ......",
".....  ..................  .....",
".....  ..................  .....",
"....  ....................  ....",
"....  ....................  ....",
"....  ....................  ....",
"....  ....................  ....",
"....  ....................  ....",
"....  ....................  ....",
"....  ....................  ....",
"....   ..................   ....",
"....   .....        .....   ....",
".....   .....      .....   .....",
".....    ....  ..  ....    .....",
"......    ...  ..  ...    ......",
".......        ..        .......",
"........                ........",
".........              .........",
"...........          ...........",
".............      .............",
".............  ..  .............",
".............  ..  .............",
".............  ..  .............",
".............  ..  .............",
".............  ..  .............",
".............  ..  .............",
".............  ..  .............",
".............  ..  ............."
};
